<?xml version="1.0" encoding="UTF-8"?>
<svg id="uuid-e38e2f8b-3658-4cf0-9588-02e219d5bbe6" data-name="Capa 2" xmlns="http://www.w3.org/2000/svg" viewBox="0 0 324.91 54.74">
  <g id="uuid-ebb9ef98-2522-4128-9beb-8ffc8207b5f2" data-name="Capa 1">
    <g>
      <path d="M55.86,54.04h-13.15v-9.67l1.27-26.02-11.78,35.68h-8.58L11.85,18.35l1.3,26.02v9.67H0V2.85h17.26l10.65,33.96L38.57,2.85h17.3v51.19Z" style="fill: #000; stroke-width: 0px;"/>
      <path d="M97.63,39.23h-23.1c.49,1.69,1.41,2.99,2.76,3.92,1.35.93,3.02,1.39,5.01,1.39,1.69,0,3.29-.28,4.8-.84s2.79-1.48,3.85-2.74l5.59,7.35c-.84,1.12-2,2.17-3.46,3.15-1.46.97-3.19,1.76-5.19,2.37-1.99.61-4.14.91-6.43.91-4.08,0-7.63-.84-10.65-2.53s-5.33-3.94-6.91-6.77c-1.58-2.82-2.37-5.89-2.37-9.19v-1.3c0-3.68.68-7,2.04-9.97,1.36-2.96,3.43-5.32,6.22-7.07,2.79-1.75,6.23-2.62,10.34-2.62,3.56,0,6.66.74,9.3,2.21s4.66,3.61,6.08,6.4c1.42,2.79,2.13,6.11,2.13,9.95v5.38ZM80.02,25.49c-1.73,0-3.04.52-3.9,1.55-.87,1.03-1.44,2.44-1.72,4.22h10.97v-1.02c.09-3.16-1.69-4.75-5.34-4.75Z" style="fill: #000; stroke-width: 0px;"/>
      <path d="M136.23.04v54h-11.32l-.63-4.22c-2.41,3.28-5.44,4.92-9.07,4.92-3.16,0-5.84-.82-8.03-2.46-2.19-1.64-3.84-3.91-4.96-6.82-1.11-2.91-1.67-6.23-1.67-9.98v-.74c0-3.91.55-7.33,1.65-10.25,1.1-2.92,2.75-5.18,4.96-6.79,2.2-1.6,4.91-2.41,8.12-2.41s6.05,1.34,8.3,4.01V.04h12.66ZM121.52,43.88c.88-.49,1.56-1.2,2.06-2.11v-13.39c-.94-1.97-2.64-2.95-5.1-2.95-3.56,0-5.34,3.11-5.34,9.32v.74c0,2.88.39,5.13,1.18,6.73.79,1.61,2.15,2.41,4.1,2.41,1.2,0,2.23-.25,3.11-.74Z" style="fill: #000; stroke-width: 0px;"/>
      <path d="M181.37,32.13c1.29,1.97,1.93,4.18,1.93,6.64,0,10.17-6.53,15.26-19.58,15.26h-20.78V2.85h18.6c6.59,0,11.68,1.2,15.29,3.6,3.61,2.4,5.41,5.96,5.41,10.67,0,2.51-.55,4.73-1.65,6.68-1.1,1.95-2.88,3.39-5.34,4.32,2.79.7,4.83,2.04,6.12,4.01ZM156.06,13.46v10.65h5.38c2.84,0,4.83-.4,5.98-1.2,1.15-.8,1.72-2.09,1.72-3.87,0-1.99-.6-3.42-1.79-4.29-1.2-.87-3.13-1.3-5.8-1.3h-5.48ZM168.66,42.06c1.04-.93,1.56-2.1,1.56-3.53,0-3.75-1.99-5.62-5.98-5.62h-8.19v10.55h7.66c2.25,0,3.9-.46,4.94-1.39Z" style="fill: #000; stroke-width: 0px;"/>
      <path d="M189.77,54.04V.04h12.66v54h-12.66Z" style="fill: #000; stroke-width: 0px;"/>
      <path d="M282.23,40.01c.02,2.98-.66,5.58-2.04,7.8-1.38,2.23-3.3,3.94-5.77,5.13s-5.25,1.79-8.37,1.79c-3.87,0-7.15-.82-9.84-2.46-2.7-1.64-4.72-3.92-6.06-6.84-1.35-2.92-2.02-6.29-2.02-10.11v-.6c0-3.82.67-7.19,2.02-10.12,1.35-2.93,3.36-5.21,6.05-6.86,2.68-1.64,5.95-2.46,9.79-2.46,3.21,0,6.05.6,8.51,1.81,2.46,1.21,4.37,2.99,5.73,5.34,1.36,2.36,2.03,5.2,2,8.53h-11.81c.05-1.64-.33-2.96-1.12-3.97-.8-1.01-2-1.51-3.62-1.51-1.41,0-2.47.39-3.18,1.16-.72.77-1.19,1.81-1.42,3.11-.23,1.3-.35,2.96-.35,4.97v.6c0,2.06.12,3.74.35,5.03.23,1.29.71,2.31,1.44,3.06.73.75,1.8,1.12,3.23,1.12,1.57,0,2.75-.39,3.55-1.16.8-.77,1.17-1.9,1.12-3.38h11.81Z" style="fill: #000; stroke-width: 0px;"/>
      <path d="M302.87,40.46l-3.2,3.13v10.44h-12.62V0h12.62v27.91l.84-1.12,8.58-10.79h15.08l-13.11,15.71,13.85,22.32h-14.38l-7.66-13.57Z" style="fill: #000; stroke-width: 0px;"/>
    </g>
    <path d="M233.03,33.64h9M209.6,33.64h9M225.09,16.64v9.73M225.09,40.45v9.73" style="fill: #000; stroke: #000; stroke-miterlimit: 10; stroke-width: 3px;"/>
    <path d="M225.08,13.81c-11.05,0-20,8.95-20,20s8.95,20,20,20,20-8.95,20-20-8.95-20-20-20ZM225.08,47.31c-7.46,0-13.5-6.04-13.5-13.5s6.04-13.5,13.5-13.5,13.5,6.04,13.5,13.5-6.04,13.5-13.5,13.5ZM225.09,24.31c-5.25,0-9.5,4.25-9.5,9.5s4.25,9.5,9.5,9.5,9.5-4.25,9.5-9.5-4.25-9.5-9.5-9.5ZM225.09,40.35c-3.61,0-6.55-2.93-6.55-6.55s2.93-6.55,6.55-6.55,6.55,2.93,6.55,6.55-2.93,6.55-6.55,6.55Z" style="fill: #000; stroke-width: 0px;"/>
  </g>
</svg>